<svg width="16" height="26" viewBox="0 0 16 26" fill="none" xmlns="http://www.w3.org/2000/svg">
<path d="M1.03293 1.38645L1.03292 1.38646C0.655681 1.73745 0.65571 2.31451 1.0329 2.66553L1.03292 2.66555L12.1401 13L1.03292 23.3345C0.655682 23.6855 0.655712 24.2625 1.0329 24.6136L1.03294 24.6136L1.44178 24.994C1.80871 25.3354 2.39669 25.3354 2.76362 24.994L14.9671 13.6395C15.3443 13.2885 15.3443 12.7115 14.9671 12.3605L14.9671 12.3605L2.76362 1.00604C2.3967 0.664651 1.80873 0.66464 1.4418 1.00609C1.44178 1.0061 1.44177 1.00611 1.44176 1.00612L1.03293 1.38645Z" fill="#F0CF28" stroke="#F0CF28" stroke-width="0.5"/>
</svg>
