<svg viewBox="0 0 153 100" fill="none" xmlns="http://www.w3.org/2000/svg">
<path d="M150.086 72.0931C148.476 72.0931 147.173 73.3907 147.173 74.9918C147.173 76.5929 148.478 77.8905 150.086 77.8905C151.694 77.8905 153 76.5907 153 74.9918C153 73.3929 151.692 72.0931 150.086 72.0931ZM150.086 77.3033C148.803 77.3033 147.759 76.2674 147.759 74.9918C147.759 73.7162 148.803 72.6781 150.086 72.6781C151.37 72.6781 152.411 73.7162 152.411 74.9918C152.411 76.2674 151.368 77.3033 150.086 77.3033ZM150.748 74.9412C150.808 74.8994 150.865 74.8445 150.911 74.7807C150.96 74.7169 151.002 74.6399 151.028 74.5541C151.057 74.4684 151.07 74.3672 151.07 74.2594C151.07 73.9889 150.98 73.7888 150.797 73.659C150.614 73.5271 150.327 73.4633 149.936 73.4633C149.833 73.4633 149.718 73.4633 149.592 73.4721C149.464 73.4809 149.345 73.4897 149.222 73.5029V76.1838H149.782V75.17H150.003L150.466 75.9507C150.521 76.0475 150.585 76.1157 150.653 76.1596C150.719 76.2036 150.806 76.2256 150.903 76.2256C150.953 76.2256 151.006 76.219 151.066 76.208C151.123 76.1948 151.176 76.1794 151.227 76.1574L150.561 75.0468C150.622 75.0226 150.689 74.9896 150.748 74.9456M150.349 74.6707C150.254 74.7521 150.128 74.7917 149.965 74.7917H149.778V73.8614C149.802 73.8614 149.831 73.857 149.866 73.8526C149.901 73.8526 149.945 73.8526 149.992 73.8526C150.144 73.8526 150.265 73.8856 150.356 73.9537C150.444 74.0241 150.49 74.1429 150.49 74.31C150.49 74.4772 150.442 74.5937 150.347 74.6729M16.0754 79.5906H12.7734V64.246H16.0754C17.7937 64.246 19.0664 64.9718 19.8935 66.4255C20.7185 67.8793 21.1331 69.8081 21.1331 72.1965C21.1331 77.1229 19.4458 79.5884 16.0754 79.5884V79.5906ZM34.0057 95.6037C33.1985 94.3347 32.3647 92.8238 31.5045 91.0599C30.6442 89.2983 29.9229 87.9611 29.3384 87.033C27.2739 83.7186 24.2653 81.7129 20.3082 81.0289C24.0248 80.787 26.921 79.8919 29.0032 78.3391C31.0832 76.7776 32.1265 74.5475 32.1265 71.6401C32.1265 68.7326 30.9729 66.5949 28.6701 64.8156C26.3651 63.0364 23.3874 62.1435 19.7435 62.1435H0.361816L2.44182 68.792V70.756C2.44182 70.8065 2.45284 70.8725 2.45284 70.9209V90.3143C2.45284 90.3649 2.44182 90.4287 2.44182 90.4793V92.4433L0.361816 99.0896H12.7734H14.4057L12.7734 92.4433V81.7327H16.9533L24.5388 99.0896H36.8203V98.8322C35.7549 97.9459 34.8152 96.8683 34.0079 95.5993L34.0057 95.6037ZM65.7572 59.7133C65.7572 57.3358 66.4387 56.146 67.7997 56.146C68.2739 56.146 68.7217 56.2801 69.1496 56.5463V63.562C68.693 63.7732 68.2695 63.8963 67.8945 63.8963C66.4696 63.8963 65.7572 62.502 65.7572 59.7133ZM69.1496 64.4154L69.7892 66.0912H73.6713V66.1154H75.1425L73.6713 62.7307V47.7886H67.8702L69.1496 51.0986V55.5214C68.7856 54.91 68.2849 54.4437 67.6475 54.1226C67.0078 53.7993 66.3307 53.6366 65.616 53.6366C64.3014 53.6366 63.1919 54.1578 62.2898 55.1959C61.3876 56.2516 60.9354 57.7581 60.9354 59.7089C60.9354 61.7564 61.4251 63.3333 62.4067 64.4352C63.3882 65.5392 64.522 66.089 65.8035 66.089C67.1909 66.089 68.3004 65.5128 69.1474 64.4132L69.1496 64.4154ZM80.1297 59.0513C80.0966 58.6422 80.0811 58.3365 80.0811 58.1298V57.9406C80.0811 55.7985 80.5973 54.7274 81.6252 54.7274C82.653 54.7274 83.1449 55.8535 83.1449 58.1056L80.1275 59.0491L80.1297 59.0513ZM87.2343 57.5513C87.0446 56.8828 86.738 56.2428 86.3189 55.638C85.8998 55.0309 85.2933 54.5471 84.5014 54.1842C83.7096 53.8235 82.7743 53.641 81.6979 53.641C79.7503 53.641 78.1908 54.1842 77.0196 55.2707C75.8329 56.3747 75.2396 57.901 75.2396 59.854C75.2396 60.9097 75.4293 61.8488 75.8087 62.6779C76.188 63.5049 76.6909 64.1624 77.3174 64.6507C77.9438 65.1389 78.621 65.5062 79.3488 65.7503C80.0767 65.9945 80.8223 66.1154 81.5832 66.1154C83.0699 66.1154 84.3161 65.713 85.3131 64.9014C86.3123 64.0899 86.9542 63.2189 87.2387 62.2886L87.1417 62.2183C85.9065 62.9132 84.7418 63.2585 83.65 63.2585C81.6693 63.2585 80.5223 62.0599 80.2047 59.6671H87.5211C87.5211 58.9259 87.4262 58.2221 87.2387 57.5535L87.2343 57.5513ZM144.257 90.3253C144.257 93.3362 143.145 95.5949 140.926 97.0992C138.707 98.6057 136.051 99.3579 132.955 99.3579C129.688 99.3579 126.093 98.7091 122.173 97.4071V88.9926H122.431C122.74 89.3027 123.419 89.9669 124.469 90.9917C125.517 92.0188 126.3 92.7622 126.816 93.2262C127.332 93.6859 128.027 94.2533 128.905 94.9175C129.783 95.5861 130.599 96.0655 131.358 96.3536C132.112 96.6461 132.851 96.7935 133.574 96.7935C134.435 96.7935 135.158 96.589 135.745 96.1755C136.329 95.7664 136.618 95.1858 136.618 94.4336C136.618 93.334 135.778 92.4125 134.091 91.6603C133.541 91.3854 132.13 90.8378 129.86 90.0196C124.081 87.9325 121.191 84.7831 121.191 80.578C121.191 78.0093 122.257 75.9925 124.392 74.5212C126.525 73.052 129.412 72.3131 133.06 72.3131C136.499 72.3131 139.766 72.8981 142.863 74.0571V82.1681H142.605C141.469 80.9695 140.611 80.0722 140.024 79.474C139.439 78.8736 138.632 78.1302 137.6 77.2395C136.57 76.351 135.606 75.711 134.71 75.3129C133.815 74.9192 132.922 74.7235 132.028 74.7235C131.236 74.7235 130.568 74.895 130.017 75.2359C129.465 75.579 129.189 76.1091 129.189 76.826C129.189 77.3385 129.328 77.7915 129.604 78.183C129.88 78.5811 130.411 78.9725 131.203 79.3662C131.995 79.7577 132.639 80.059 133.135 80.2635C133.636 80.4681 134.571 80.8112 135.95 81.2906C139.08 82.3859 141.246 83.6747 142.448 85.1658C143.652 86.6525 144.257 88.3724 144.257 90.3187V90.3253ZM104.99 94.1279C103.751 94.1279 102.805 93.6639 102.152 92.7424C101.463 91.8539 101.122 90.708 101.122 89.3049C101.122 86.4304 102.498 84.9964 105.248 84.9964C105.833 84.9964 106.349 85.0624 106.797 85.201V91.6647C106.797 92.2783 106.85 92.8787 106.953 93.4615C106.367 93.908 105.714 94.1301 104.99 94.1301V94.1279ZM118.095 94.2819C117.682 94.2819 117.312 94.0488 116.985 93.5891C116.659 93.1251 116.495 92.0056 116.495 90.2286V81.3984C116.495 78.6624 115.697 76.4653 114.098 74.8049C112.499 73.1466 109.892 72.3175 106.279 72.3175C102.666 72.3175 98.4526 72.9025 93.3287 74.0615V82.1725H93.5846C93.5846 82.1725 100.118 76.4609 101.94 75.59C105.165 74.0417 106.949 76.1948 106.768 78.2248C106.722 78.7328 106.792 79.54 106.792 80.6352V83.4569C104.933 82.7048 102.957 82.3287 100.859 82.3287C98.1747 82.3287 95.8697 83.1138 93.9441 84.6885C92.0185 86.2632 91.0546 88.313 91.0546 90.8444C91.0546 93.0701 91.7958 95.0385 93.2736 96.7451C94.7536 98.4584 96.8005 99.3139 99.4143 99.3139C101.34 99.3139 102.963 98.8674 104.289 97.9767C105.612 97.086 106.603 96.0479 107.256 94.8471C108.151 97.825 110.249 99.3117 113.551 99.3117C115.443 99.3117 116.945 98.8059 118.064 97.7964C119.182 96.7891 119.793 95.5003 119.897 93.9234L119.742 93.7694C119.087 94.1125 118.538 94.2819 118.09 94.2819H118.095ZM86.5814 85.1724C87.7858 86.6591 88.3879 88.379 88.3879 90.3253C88.3879 93.3362 87.2784 95.5949 85.0573 97.0992C82.8405 98.6057 80.1826 99.3579 77.0858 99.3579C73.8191 99.3579 70.2238 98.7091 66.3042 97.4071V88.9926H66.5623C66.8711 89.3027 67.5504 89.9669 68.6003 90.9917C69.6481 92.0188 70.4311 92.7622 70.9472 93.2262C71.4634 93.6859 72.1604 94.2533 73.0361 94.9175C73.9139 95.5861 74.7301 96.0655 75.4888 96.3536C76.2432 96.6461 76.9843 96.7935 77.7056 96.7935C78.5658 96.7935 79.2893 96.589 79.876 96.1755C80.4605 95.7664 80.7517 95.1858 80.7517 94.4336C80.7517 93.334 79.9091 92.4125 78.2239 91.6603C77.6747 91.3854 76.263 90.8378 73.9933 90.0196C68.2143 87.9325 65.3248 84.7831 65.3248 80.578C65.3248 78.0093 66.3902 75.9925 68.5254 74.5212C70.6583 73.052 73.5478 72.3131 77.1938 72.3131C80.6326 72.3131 83.8993 72.8981 86.9939 74.0571V82.1681H86.7358C85.5999 80.9695 84.7418 80.0722 84.1573 79.474C83.5728 78.8736 82.7655 78.1302 81.7332 77.2395C80.7032 76.351 79.7393 75.711 78.8437 75.3129C77.9482 74.9192 77.0549 74.7235 76.1616 74.7235C75.3697 74.7235 74.7014 74.895 74.1499 75.2359C73.5985 75.579 73.3228 76.1091 73.3228 76.826C73.3228 77.3385 73.4618 77.7915 73.7353 78.183C74.011 78.5811 74.5426 78.9725 75.3344 79.3662C76.1263 79.7577 76.7704 80.059 77.2689 80.2635C77.7695 80.4681 78.7048 80.8112 80.0811 81.2906C83.2111 82.3859 85.3771 83.6747 86.5814 85.1658V85.1724ZM51.7905 96.6175C49.576 97.2553 47.4099 93.9256 45.2902 86.6283C43.2367 79.5642 43.3161 75.711 45.5307 75.0754C47.7783 74.4288 49.9311 77.6398 51.9846 84.7061C54.1065 92.0034 54.0404 95.9732 51.7927 96.6198L51.7905 96.6175ZM58.9018 75.6758C56.1667 73.4369 52.7522 72.3131 48.6584 72.3131C44.5646 72.3131 41.1589 73.4281 38.4415 75.6494C35.724 77.8751 34.3675 81.207 34.3675 85.6562C34.3675 90.1054 35.7328 93.5539 38.4701 95.8962C41.203 98.2406 44.6021 99.4085 48.6584 99.4085C52.7147 99.4085 56.0806 98.2384 58.8488 95.8962C61.6192 93.5539 63.0022 90.1428 63.0022 85.6562C63.0022 81.1696 61.6369 77.9169 58.9018 75.6758ZM20.6699 34.1464V10.4929L18.5899 3.84658H33.1742L30.9243 10.4929V38.4658C31.9566 39.0068 33.0154 39.5984 34.1381 40.3264C50.8928 51.169 60.4833 43.3395 62.8235 40.962C62.9559 41.0544 63.0706 41.1336 63.1963 41.2193C62.4287 44.1818 59.2106 53.696 49.5164 53.696C42.1427 53.696 37.0673 47.241 30.5119 42.7676C28.6282 41.4832 26.396 40.7949 24.1109 40.7949H18.5899L20.6699 34.1486V34.1464ZM66.5512 13.6005H76.7902V39.7744H66.5512V13.5983V13.6005ZM112.252 22.633C112.252 17.9815 113.37 15.6546 115.607 15.6546C117.843 15.6546 118.909 18.0981 118.909 22.9915L112.353 25.0435C112.283 24.1527 112.252 23.4907 112.252 23.0443V22.6352V22.633ZM106.239 37.2078C107.598 38.2679 109.069 39.0618 110.65 39.5918C112.234 40.1219 113.851 40.3836 115.503 40.3836C118.732 40.3836 121.436 39.5083 123.602 37.7444C125.768 35.9828 127.162 34.0914 127.782 32.0724L127.575 31.9185C124.893 33.425 122.363 34.1772 119.989 34.1772C115.688 34.1772 113.196 31.5754 112.508 26.3762H128.402C128.402 24.7685 128.192 23.2356 127.78 21.7819C127.367 20.3282 126.704 18.9426 125.793 17.6274C124.882 16.3078 123.567 15.2588 121.847 14.4692C120.126 13.6841 118.095 13.286 115.757 13.286C111.526 13.286 108.136 14.4692 105.593 16.8269C103.012 19.2241 101.724 22.5406 101.724 26.7831C101.724 29.0748 102.134 31.1179 102.961 32.917C103.786 34.7138 104.878 36.1411 106.237 37.2012H106.239V37.2078ZM83.6125 16.1671H79.8451V13.5983C85.0065 10.9305 89.4775 7.67996 93.2604 3.84658V13.5983H100.175V16.1671H93.2604L93.3111 30.4823C93.3111 32.8752 94.4117 34.0738 96.6131 34.0738C97.4733 34.0738 98.5739 33.8363 99.915 33.3546C98.3666 38.0391 95.4793 40.3836 91.2465 40.3836C88.8732 40.3836 87.0071 39.616 85.6484 38.0743C84.2897 36.537 83.6103 34.2959 83.6103 31.3555V16.1671H83.6125ZM67.8526 9.72311C66.699 8.61247 66.1255 7.27089 66.1255 5.69619C66.1255 4.12149 66.6924 2.76892 67.8283 1.64068C68.9643 0.545427 70.3407 0 71.9553 0C73.5698 0 74.9462 0.554224 76.0822 1.66707C77.2181 2.77772 77.785 4.12369 77.785 5.69619C77.785 7.26869 77.2181 8.60147 76.0822 9.69672C74.9131 10.8272 73.5346 11.3924 71.9553 11.3924C70.376 11.3924 69.0062 10.8382 67.8526 9.72092V9.72311ZM47.3438 22.6308C47.3438 17.9793 48.4621 15.6524 50.6987 15.6524C52.9353 15.6524 54.0006 18.0959 54.0006 22.9893L47.4452 25.0413C47.3746 24.1505 47.3416 23.4885 47.3416 23.0421V22.633L47.3438 22.6308ZM41.331 37.2056C42.6897 38.2657 44.1609 39.0596 45.7424 39.5918C47.3261 40.1219 48.9429 40.3836 50.595 40.3836C53.8264 40.3836 56.5284 39.5083 58.6944 37.7444C60.8605 35.9828 62.2545 34.0914 62.8743 32.0724L62.6669 31.9185C59.9826 33.425 57.457 34.1794 55.0837 34.1794C50.7825 34.1794 48.29 31.5776 47.5996 26.3784H63.4941C63.4941 24.7707 63.2868 23.2378 62.8743 21.7841C62.4596 20.3304 61.7979 18.9448 60.8869 17.6296C59.976 16.31 58.6613 15.261 56.9387 14.4714C55.2204 13.6863 53.1889 13.2882 50.8487 13.2882C46.6181 13.2882 43.2301 14.4714 40.6847 16.8291C38.104 19.2263 36.8158 22.5406 36.8158 26.7853C36.8158 29.077 37.2283 31.1201 38.0555 32.9192C38.8804 34.716 39.9722 36.1433 41.331 37.2034H41.3332L41.331 37.2056Z" fill="white"/>
</svg>
