<svg viewBox="0 0 92 31" fill="none" xmlns="http://www.w3.org/2000/svg">
<path d="M6.42585 21.0788C6.30063 21.7466 6.1747 22.4996 6.21644 23.3354C6.25747 24.7988 7.09369 25.5935 8.51214 25.5928C12.0176 25.5928 14.4774 20.742 14.4774 17.1886C14.4788 15.1822 13.6433 13.6749 11.8082 13.6749C9.637 13.6764 7.50967 15.8501 6.80009 19.4049L6.42585 21.0781V21.0788ZM10.6381 0.00378418L8.21855 11.7118H8.30203C9.80467 9.91312 12.099 8.78514 14.6012 8.78444C18.8587 8.78444 20.7759 12.2974 20.7781 15.9344C20.7781 22.5414 16.4392 30.1522 7.25994 30.1522C2.42022 30.1515 0 28.0615 0 24.4237C0 23.1695 0.207993 21.9146 0.459848 20.7016L4.58858 0.00378418H10.6381Z" fill="#262262"/>
<path d="M36.8834 13.5067C36.425 13.4245 35.8406 13.3408 35.2145 13.3415C31.3759 13.3415 28.5396 18.1079 28.5389 21.9123C28.5389 23.9194 29.3327 25.2998 31.0023 25.2998C32.795 25.2984 35.0072 23.2508 35.9241 18.232L36.8841 13.5067H36.8834ZM35.1317 29.6898C35.1728 28.476 35.2987 27.0977 35.3815 25.6337H35.2973C33.4218 29.0205 30.8332 30.1499 28.4555 30.1499C24.7852 30.1492 22.2808 27.3076 22.2808 23.041C22.2793 16.1434 26.8693 8.7828 36.8834 8.78351C39.3036 8.78351 41.8894 9.24292 43.5993 9.78671L41.4727 20.4908C40.9732 23.1254 40.5544 27.1396 40.6386 29.6898H35.131H35.1317Z" fill="#262262"/>
<path d="M44.4773 29.689L46.7709 17.5223C47.3545 14.4269 47.6057 10.9983 47.8136 9.24217H53.029C52.9052 10.6218 52.8203 12.0015 52.6541 13.4655H52.7793C54.2388 10.7055 56.4913 8.78205 59.2879 8.78275C59.6629 8.78205 60.0803 8.82458 60.4135 8.82458L59.2455 14.7197C58.9957 14.6779 58.6618 14.6765 58.2862 14.6786C54.4899 14.6786 52.6534 18.0654 51.9028 22.0796L50.485 29.6897H44.4766L44.4773 29.689Z" fill="#262262"/>
<path d="M59.7478 29.6876L65.4209 0H71.4287L65.7562 29.689L59.7478 29.6876Z" fill="#262262"/>
<path d="M85.2818 13.5053C84.8227 13.4216 84.2384 13.338 83.613 13.338C79.7743 13.338 76.9367 18.1044 76.9367 21.9095C76.9374 23.918 77.7304 25.2963 79.3986 25.2963C81.192 25.2963 83.4043 23.248 84.3211 18.2299L85.2811 13.5046L85.2818 13.5053ZM83.5309 29.6869C83.5719 28.4746 83.6971 27.0956 83.7806 25.6309L83.6971 25.633C81.8188 29.0184 79.2331 30.1485 76.8553 30.1485C73.1829 30.1485 70.6785 27.3055 70.6792 23.0396C70.6792 16.1406 75.2685 8.78211 85.2818 8.7814C87.7014 8.7814 90.2885 9.24153 91.9999 9.7846L89.8725 20.4887C89.3724 23.1233 88.955 27.136 89.0385 29.6869H83.5309Z" fill="#262262"/>
</svg>
